<?xml version="1.0" encoding="UTF-8" standalone="no"?>
<svg
   xmlns:dc="http://purl.org/dc/elements/1.1/"
   xmlns:cc="http://creativecommons.org/ns#"
   xmlns:rdf="http://www.w3.org/1999/02/22-rdf-syntax-ns#"
   xmlns:svg="http://www.w3.org/2000/svg"
   xmlns="http://www.w3.org/2000/svg"
   viewBox="0 0 135.79333 177.72533"
   height="177.72533"
   width="135.79333"
   xml:space="preserve"
   id="svg2"
   version="1.1"><metadata
     id="metadata8"><rdf:RDF><cc:Work
         rdf:about=""><dc:format>image/svg+xml</dc:format><dc:type
           rdf:resource="http://purl.org/dc/dcmitype/StillImage" /></cc:Work></rdf:RDF></metadata><defs
     id="defs6"><clipPath
       id="clipPath18"
       clipPathUnits="userSpaceOnUse"><path
         id="path16"
         d="M 0,133.294 H 101.845 V 0 H 0 Z" /></clipPath></defs><g
     transform="matrix(1.3333333,0,0,-1.3333333,0,177.72533)"
     id="g10"><g
       id="g12"><g
         clip-path="url(#clipPath18)"
         id="g14"><g
           transform="translate(27.6377,60.3568)"
           id="g20"><path
             id="path22"
             style="fill:#8a162a;fill-opacity:1;fill-rule:nonzero;stroke:none"
             d="m 0,0 c -2.472,1.555 -4.154,2.467 -5.506,3.199 -0.933,0.507 -1.671,0.906 -2.325,1.339 -3.585,2.374 -6.137,6.779 -7.601,13.11 C -6.09,14.004 1.253,6.374 4.562,-3.043 3.07,-1.99 1.545,-0.972 0,0 M 7.995,-5.934 C 5.041,6.607 -4.427,16.828 -16.716,20.74 l -1.97,0.627 0.37,-2.035 c 1.485,-8.173 4.551,-13.848 9.112,-16.868 0.746,-0.493 1.525,-0.916 2.513,-1.451 1.32,-0.716 2.963,-1.606 5.367,-3.118 2.528,-1.59 5.002,-3.307 7.354,-5.103 l 2.762,-2.109 z" /></g><g
           transform="translate(81.3257,64.895)"
           id="g24"><path
             id="path26"
             style="fill:#8a162a;fill-opacity:1;fill-rule:nonzero;stroke:none"
             d="M 0,0 C -0.654,-0.433 -1.392,-0.833 -2.325,-1.339 -3.677,-2.072 -5.359,-2.983 -7.831,-4.538 -9.377,-5.51 -10.902,-6.528 -12.392,-7.581 -9.083,1.836 -1.74,9.466 7.601,13.11 6.138,6.779 3.585,2.374 0,0 m -15.826,-10.472 -0.797,-3.383 2.762,2.109 c 2.349,1.794 4.823,3.511 7.355,5.103 2.403,1.511 4.047,2.402 5.366,3.118 0.988,0.535 1.767,0.958 2.513,1.451 4.561,3.02 7.627,8.695 9.113,16.868 l 0.369,2.035 -1.97,-0.628 C -3.403,12.289 -12.872,2.069 -15.826,-10.472" /></g><g
           transform="translate(50.7061,130.8065)"
           id="g28"><path
             id="path30"
             style="fill:#8a162a;fill-opacity:1;fill-rule:nonzero;stroke:none"
             d="m 0,0 c 21.828,0 39.586,-17.758 39.586,-39.585 h 2.486 C 42.072,-16.387 23.199,2.487 0,2.487 c -23.199,0 -42.072,-18.874 -42.072,-42.072 h 2.487 C -39.585,-17.758 -21.827,0 0,0" /></g><g
           transform="translate(65.7876,74.7583)"
           id="g32"><path
             id="path34"
             style="fill:#8a162a;fill-opacity:1;fill-rule:nonzero;stroke:none"
             d="m 0,0 c -3.099,-3.597 -5.809,-7.445 -7.419,-11.956 -0.476,-1.335 -0.727,-2.75 -1.122,-4.286 h 2.717 c 1.002,5.215 3.729,9.413 6.909,13.389 1.895,2.369 3.87,4.696 5.54,7.22 3.938,5.951 4.889,12.317 2.032,19.024 C 7.236,26.727 4.939,29.238 1.309,30.867 1.537,30.106 1.663,29.649 1.812,29.199 3.711,23.439 3.382,17.827 0.348,12.55 -1.43,9.457 -3.401,6.449 -5.542,3.595 c -3.915,-5.217 -7.871,-10.377 -9.714,-16.781 -0.016,-0.056 -0.174,-0.072 -0.389,-0.152 -1.598,6.061 -5.171,11.007 -8.906,15.884 -1.975,2.579 -3.821,5.269 -5.574,8.004 -3.863,6.022 -4.847,12.438 -2.337,19.259 0.096,0.262 0.078,0.566 0.131,0.996 -0.358,-0.164 -0.553,-0.243 -0.739,-0.34 -5.624,-2.937 -8.998,-10.327 -7.931,-17.233 0.882,-5.719 4.055,-10.212 7.671,-14.457 3.793,-4.453 7.143,-9.132 8.308,-15.014 h 2.597 c -0.143,0.84 -0.132,1.575 -0.396,2.194 -1.165,2.729 -2.141,5.591 -3.694,8.09 -1.821,2.929 -4.157,5.541 -6.292,8.273 -2.734,3.5 -5.087,7.182 -5.59,11.732 -0.337,3.05 0.31,5.92 1.729,9.053 0.777,-7.27 1.846,-10.418 5.374,-15.728 1.379,-2.077 2.883,-4.07 4.315,-6.112 2.053,-2.926 4.318,-5.732 6.086,-8.821 1.598,-2.791 2.692,-5.711 3.35,-8.785 h 2.003 c 0.766,0 1.495,-0.044 2.298,0.059 1.224,5.353 3.712,10.275 7.279,14.886 C -0.412,5.781 5.6,12.829 5.835,22.699 7.819,18.551 8.216,14.346 6.558,10.017 5.097,6.203 2.628,3.05 0,0" /></g><g
           transform="translate(47.8213,46.473)"
           id="g36"><path
             id="path38"
             style="fill:#8a162a;fill-opacity:1;fill-rule:nonzero;stroke:none"
             d="M 0,0 C 0.693,1.009 1.453,1.968 2.333,3.078 2.375,3.131 2.416,3.184 2.458,3.237 2.486,3.202 2.513,3.167 2.541,3.133 3.441,1.985 4.293,0.901 5.081,-0.194 5.093,-0.231 5.103,-0.289 5.105,-0.334 4.278,-1.883 3.389,-3.437 2.45,-5.076 1.535,-3.48 0.669,-1.97 -0.104,-0.461 -0.111,-0.336 -0.058,-0.09 0,0 m 1.367,-8.196 1.08,-1.907 1.084,1.905 c 0.353,0.62 0.696,1.219 1.03,1.803 0.986,1.721 1.917,3.347 2.791,4.989 0.437,0.82 0.222,2.003 -0.226,2.628 C 6.3,2.372 5.424,3.488 4.497,4.669 4.155,5.103 3.804,5.55 3.443,6.015 L 2.461,7.278 1.479,6.015 C 1.099,5.526 0.734,5.065 0.383,4.622 -0.486,3.524 -1.309,2.487 -2.049,1.409 -2.558,0.67 -2.809,-0.631 -2.351,-1.53 c 0.811,-1.587 1.705,-3.146 2.65,-4.795 0.347,-0.603 0.702,-1.223 1.068,-1.871" /></g><g
           transform="translate(17.0811,11.373)"
           id="g40"><path
             id="path42"
             style="fill:#8a162a;fill-opacity:1;fill-rule:nonzero;stroke:none"
             d="m 0,0 -12.41,19.157 h -3.893 l 1.947,-2.681 v -22.4 c 0,-1.859 -1.297,-4.151 -2.725,-4.887 v -0.302 h 5.795 v 0.302 c -1.427,0.736 -2.725,3.028 -2.725,4.887 V 16.044 L -1.643,-2.811 h 0.389 l 11.936,20.67 V -8.259 c 0,-1.513 -0.346,-2.162 -0.995,-2.552 v -0.302 h 5.362 v 0.302 c -0.692,0.39 -0.994,1.039 -0.994,2.552 V 16.26 c 0,1.556 0.302,2.162 0.994,2.552 v 0.345 h -4.022 z" /></g><g
           transform="translate(56.2627,7.0488)"
           id="g44"><path
             id="path46"
             style="fill:#8a162a;fill-opacity:1;fill-rule:nonzero;stroke:none"
             d="m 0,0 c -0.433,-3.373 -3.676,-5.924 -7.395,-6.097 -4.411,-0.174 -7.654,1.816 -9.254,6.357 -0.735,2.075 -0.865,4.627 -0.303,6.919 h 11.2 C -2.465,7.179 0.519,4.497 0,0 m -11.243,13.492 c 4.237,0.821 7.61,-2.205 8.173,-5.968 h -13.795 c 0.778,2.941 2.68,5.406 5.622,5.968 m 7.264,-6.313 h 0.952 3.07 c -0.605,5.232 -5.665,7.005 -9.341,6.832 -4.757,-0.259 -11.546,-3.502 -11.329,-10.984 0.173,-7.135 5.924,-10.076 11.892,-10.076 6.14,0 8.865,4.066 9.124,7.136 0.345,3.934 -1.903,6.443 -4.368,7.092" /></g><g
           transform="translate(70.3604,21.0596)"
           id="g48"><path
             id="path50"
             style="fill:#8a162a;fill-opacity:1;fill-rule:nonzero;stroke:none"
             d="M 0,0 C -4.583,0 -5.794,-6.356 -6.227,-11.589 V 0 h -0.345 l -4.066,-0.951 v -0.303 c 0.866,-0.13 0.995,-0.562 0.995,-2.075 v -14.616 c 0,-1.514 -0.302,-2.162 -0.995,-2.552 V -20.8 h 5.363 v 0.303 c -0.649,0.39 -0.952,1.038 -0.952,2.552 v 1.686 c 0,3.675 0.563,14.832 4.8,15.481 2.335,0.345 3.546,-2.854 3.633,-5.319 L 2.509,-6.27 5.146,-2.551 C 3.676,-0.821 2.336,0 0,0" /></g><g
           transform="translate(89.1289,14.1406)"
           id="g52"><path
             id="path54"
             style="fill:#8a162a;fill-opacity:1;fill-rule:nonzero;stroke:none"
             d="m 0,0 c -0.735,0.217 -1.6,0.39 -2.595,0.39 -2.032,0 -4.627,-0.303 -6.962,-1.168 -1.297,3.503 1.298,7.264 5.19,7.264 C -1.297,6.486 0,3.59 0,0.303 Z m 0,-7.049 c -0.864,-3.113 -2.854,-6.313 -6.616,-6.529 -2.162,-0.13 -4.67,1.297 -5.233,3.633 C -13.708,-2.335 -7.308,0 -2.595,0 -1.254,0 -0.216,-0.303 0,-0.389 Z m 3.417,-3.977 v 10.723 c 0,5.32 -3.806,7.222 -7.396,7.222 -5.793,0 -7.134,-5.362 -6.01,-7.87 -3.329,-1.384 -5.967,-3.979 -5.233,-8.389 0.563,-3.114 4.022,-4.801 7.569,-4.801 4.15,0 6.529,2.509 7.653,6.314 v -6.054 h 4.368 v 0.303 c -0.649,0.39 -0.951,1.038 -0.951,2.552" /></g><g
           transform="translate(100.8936,3.1143)"
           id="g56"><path
             id="path58"
             style="fill:#8a162a;fill-opacity:1;fill-rule:nonzero;stroke:none"
             d="M 0,0 V 28.324 H -0.303 L -4.368,27.416 V 27.07 c 0.822,-0.13 0.951,-0.562 0.951,-2.076 L -3.417,0 c 0,-1.514 -0.303,-2.162 -0.951,-2.552 v -0.302 h 5.319 v 0.302 C 0.303,-2.162 0,-1.514 0,0" /></g></g></g></g></svg>